<svg preserveAspectRatio="none" overflow="visible" style="display: block;" width="19.7538" height="19.7538" viewBox="0 0 19.7538 19.7538" fill="none" xmlns="http://www.w3.org/2000/svg">
<path id="Vector" d="M16.861 2.89284C14.9321 0.963915 12.4049 -0.000365708 9.87692 1.04042e-07C7.34953 0.00018301 4.82122 0.964463 2.89284 2.89284C-0.96428 6.74996 -0.96428 13.0037 2.89284 16.861C4.82177 18.7897 7.34898 19.7538 9.87692 19.7538C12.4043 19.7538 14.9326 18.7894 16.861 16.861C20.7181 13.0037 20.7181 6.74996 16.861 2.89284ZM17.8891 7.30161C17.1769 7.11138 16.2148 7.03091 15.2267 7.47756C14.9476 7.60377 14.6837 7.76418 14.4348 7.95824C14.2005 7.66705 13.9563 7.383 13.7024 7.10663L16.3309 4.47809C16.8943 5.14917 17.3448 5.89725 17.6744 6.71009C17.7538 6.90507 17.8253 7.10242 17.8891 7.30161ZM15.2796 3.42583L12.6501 6.05547C12.3734 5.80196 12.0892 5.55833 11.7978 5.32439C11.9926 5.07491 12.1534 4.81043 12.2799 4.53076C12.7273 3.54143 12.6459 2.57806 12.4552 1.86546C12.6534 1.92929 12.8499 2.00044 13.0443 2.07928C13.8582 2.40942 14.6076 2.86102 15.2796 3.42583ZM9.87784 1.46325C10.1601 1.46325 10.4405 1.47715 10.7185 1.50477C10.7635 1.58067 11.4441 2.76865 10.9244 3.91785C10.8418 4.10057 10.7322 4.27579 10.5968 4.44334C9.23072 3.52972 7.73839 2.8162 6.161 2.32547C6.34062 2.23712 6.52352 2.15518 6.71009 2.07946C7.71808 1.67066 8.78369 1.46325 9.87784 1.46325ZM3.92754 3.92754C4.10715 3.74793 4.29335 3.57764 4.48577 3.41632C6.22319 3.80572 7.8688 4.48339 9.36113 5.41566C8.47568 5.89323 7.26777 6.25996 5.76648 6.50066C4.10167 6.7677 2.80889 7.14943 1.74785 7.69833C1.83747 7.36361 1.94777 7.03383 2.07909 6.70991C2.50215 5.66734 3.12403 4.73105 3.92754 3.92754ZM1.46325 9.87692C1.46325 9.79535 1.46453 9.71395 1.46691 9.63256C1.46983 9.63037 1.47276 9.62835 1.4755 9.62616C2.52739 8.81387 3.92352 8.30302 6.00224 7.96958C8.02189 7.64565 9.58885 7.10187 10.6907 6.34519C11.0016 6.58754 11.304 6.84215 11.597 7.10846L3.42601 15.2796C2.8612 14.6076 2.4096 13.8582 2.07928 13.0438C1.67048 12.0358 1.46325 10.9703 1.46325 9.87692ZM9.87692 18.2906C8.78333 18.2906 7.7179 18.0834 6.71009 17.6748C5.89725 17.3452 5.14917 16.8945 4.47809 16.3311L12.6494 8.1598C12.9159 8.45245 13.1709 8.75425 13.4134 9.06482C12.656 10.1668 12.1117 11.7345 11.7876 13.7554C11.4541 15.8342 10.9433 17.2301 10.131 18.2822C10.1297 18.2838 10.1286 18.2855 10.1273 18.2871C10.0443 18.2891 9.96069 18.2906 9.87692 18.2906ZM13.0438 17.6744C12.7218 17.805 12.3943 17.9147 12.0617 18.004C12.6092 16.9439 12.99 15.6527 13.2567 13.9907C13.4979 12.4868 13.8654 11.2774 14.3442 10.3916C15.277 11.8801 15.9562 13.5215 16.3483 15.2549C16.1839 15.4521 16.0099 15.6427 15.8263 15.8261C15.0228 16.6298 14.0867 17.2515 13.0438 17.6744ZM17.6746 13.0438C17.601 13.225 17.5213 13.4032 17.4359 13.5778C16.9435 12.0063 16.23 10.5193 15.3173 9.1581C15.4802 9.02678 15.6503 8.91996 15.8278 8.83857C16.313 8.61579 16.8588 8.57701 17.45 8.72352C17.88 8.82997 18.1887 9.00208 18.2493 9.0372C18.2767 9.31485 18.2906 9.59506 18.2906 9.87692C18.2906 10.9703 18.0834 12.0358 17.6746 13.0438Z" fill="white"/>
</svg>
